<?xml version="1.0" encoding="UTF-8"?>
<svg xmlns="http://www.w3.org/2000/svg" version="1.1" viewBox="0 0 150 91">
  <defs>
    <style>
      .cls-1 {
        fill: #ba0c2f;
      }
    </style>
  </defs>
  <!-- Generator: Adobe Illustrator 28.7.1, SVG Export Plug-In . SVG Version: 1.2.0 Build 142)  -->
  <g>
    <g id="Layer_1">
      <path class="cls-1" d="M149.8,88c-.1-.3-.3-.5-.5-.7-.2-.2-.4-.4-.7-.5-.3-.1-.5-.2-.8-.2s-.6,0-.8.2c-.3.1-.5.3-.7.5-.2.2-.4.4-.5.7-.1.3-.2.5-.2.8s0,.6.2.8c.1.3.3.5.5.7.2.2.4.4.7.5.3.1.5.2.8.2s.5,0,.8-.2c.3-.1.5-.3.7-.5.2-.2.3-.4.5-.7.1-.3.2-.5.2-.8s0-.6-.2-.8ZM149.6,89.6c0,.2-.2.4-.4.6-.2.2-.4.3-.6.4-.2,0-.5.1-.7.1s-.5,0-.7-.1c-.2,0-.4-.2-.6-.4-.2-.2-.3-.4-.4-.6,0-.2-.1-.5-.1-.7s0-.5.1-.7c0-.2.2-.4.4-.6.2-.2.4-.3.6-.4.2,0,.5-.1.7-.1s.5,0,.7.1c.2,0,.4.2.6.4.2.2.3.4.4.6,0,.2.1.5.1.7s0,.5-.1.7ZM67.3,51.5c-.8-3.7,0-7.2,0-7.2H28.3s-10.1-1.9-15.6-.5c-4,1-10.2,3.3-11.8,10.9-1.3,6.3,1.8,10.6,4,12.7,2.2,2,12.3,6.3,13,6.5,1.1.4,5.5,2.6,4.4,7.2-.9,3.5-5.5,4.4-6.6,4.4s-8.5.6-10.5-7.1c0,0-2.8,0-2.8,0,0,0-.1,3.6-2.4,9.3,0,0,3.9,3.4,14,3.3.6,0,12.2,0,17.2-8.5,5.5-9.5-2.5-16.1-2.5-16.1-3.3-2.9-13.1-6.9-13.1-6.9-7.8-3.1-4.7-10.1-.7-10.7,3.7-.5,7-.4,13.2,2.6,0,0,10.4-1.3,13.2-.9,0,0,0,39.8,0,39.8,0,0,4.6-1,12.7,0v-39.7c2.3-.5,13.2,1,13.2,1ZM149,88.3c0-.2,0-.4-.3-.5-.2-.1-.4-.2-.8-.2h-.9v2.4h.4v-1.1h.5l.5,1.1h.5l-.5-1.1c.2,0,.3-.1.4-.2.1-.1.2-.3.2-.4ZM148.4,88.6c-.1,0-.3,0-.5,0h-.4v-.8h.4c.2,0,.4,0,.5.1.1,0,.2.2.2.3s0,.2-.1.3ZM63.9,21.1c22.2-3.5,34.5-2.9,34.5-2.9v-2.1c0,0-27.8.6-48.7,3.8C7,26.3,0,39,0,39h30.8s5.4-13.5,33.1-17.9ZM139.3,55.4c0-12.3-16.4-11.1-16.4-11.1h-19v43.2s-20.1-43.8-20.1-43.8c0,0-3.9.5-6.4,0,0,0-21.6,46.4-21.7,46.4,3.9-.7,8.7,0,8.7,0l5.3-13.3h15.9s5.2,13.5,5.2,13.5c0,0,6.3-1.2,13.4,0,4.2-1,12.6-.1,12.6-.1v-19.4s12.8,19.5,12.8,19.5c7.4-1.1,15.3,0,15.3,0l-16.2-22.3s10.8-2.1,10.8-12.4ZM72.3,71.1l5.5-12.3,5.4,12.3h-10.8ZM125.3,61.6c-2.2,4-8.8,3.6-8.8,3.6v-15.9s6.7-.8,8.6,2.4c2.6,4.4.2,9.9.2,9.9ZM122.4,0l-5.3,16.2h-17.1s13.9,9.7,13.9,9.7l-5.5,16.1,14-10.1,14,10-5.5-16,13.9-9.7h-17.2S122.4,0,122.4,0Z"/>
    </g>
  </g>
</svg>